<svg width="24" height="24" viewBox="0 0 24 24" fill="none" xmlns="http://www.w3.org/2000/svg">
<g id="linkedin">
<rect width="24" height="24" rx="2" fill="#0077B7"/>
<g id="Group 1116602866">
<path id="Vector" d="M14.8424 8.68408C16.3499 8.68408 17.7957 9.28295 18.8617 10.3489C19.9277 11.4149 20.5266 12.8607 20.5266 14.3683V19.9999C20.5266 20.5521 20.0789 20.9999 19.5266 20.9999H17.7371C17.1849 20.9999 16.7371 20.5521 16.7371 19.9999V14.3683C16.7371 13.8658 16.5375 13.3838 16.1822 13.0285C15.8269 12.6732 15.3449 12.4736 14.8424 12.4736C14.3399 12.4736 13.858 12.6732 13.5026 13.0285C13.1473 13.3838 12.9477 13.8658 12.9477 14.3683V19.9999C12.9477 20.5521 12.5 20.9999 11.9477 20.9999H10.1582C9.60592 20.9999 9.1582 20.5521 9.1582 19.9999V14.3683C9.1582 12.8607 9.75707 11.4149 10.8231 10.3489C11.8891 9.28295 13.3349 8.68408 14.8424 8.68408Z" fill="white"/>
<path id="Vector_2" d="M6.2631 9.63159H4.47363C3.92135 9.63159 3.47363 10.0793 3.47363 10.6316V20C3.47363 20.5523 3.92135 21 4.47363 21H6.2631C6.81539 21 7.2631 20.5523 7.2631 20V10.6316C7.2631 10.0793 6.81539 9.63159 6.2631 9.63159Z" fill="white"/>
<path id="Vector_3" d="M5.36837 6.78947C6.4148 6.78947 7.2631 5.94117 7.2631 4.89473C7.2631 3.8483 6.4148 3 5.36837 3C4.32193 3 3.47363 3.8483 3.47363 4.89473C3.47363 5.94117 4.32193 6.78947 5.36837 6.78947Z" fill="white"/>
</g>
</g>
</svg>
