<svg width="1440" height="606" viewBox="0 0 1440 606" fill="none" xmlns="http://www.w3.org/2000/svg">
<g clip-path="url(#clip0_5301_11246)">
<circle cx="10" cy="10" r="106" stroke="url(#paint0_linear_5301_11246)" stroke-width="48"/>
<path d="M1536 596C1536 654.542 1488.54 702 1430 702C1371.46 702 1324 654.542 1324 596C1324 537.458 1371.46 490 1430 490C1488.54 490 1536 537.458 1536 596Z" stroke="url(#paint1_linear_5301_11246)" stroke-width="48"/>
<g opacity="0.2" clip-path="url(#clip1_5301_11246)">
<path d="M1220.98 65.9556C1222.62 65.9556 1223.96 64.6224 1223.96 62.9778C1223.96 61.3332 1222.62 60 1220.98 60C1219.33 60 1218 61.3332 1218 62.9778C1218 64.6224 1219.33 65.9556 1220.98 65.9556Z" fill="url(#paint2_linear_5301_11246)"/>
<path d="M1220.98 91.9112C1222.62 91.9112 1223.96 90.578 1223.96 88.9334C1223.96 87.2888 1222.62 85.9556 1220.98 85.9556C1219.33 85.9556 1218 87.2888 1218 88.9334C1218 90.578 1219.33 91.9112 1220.98 91.9112Z" fill="url(#paint3_linear_5301_11246)"/>
<path d="M1220.98 143.822C1222.62 143.822 1223.96 142.489 1223.96 140.844C1223.96 139.2 1222.62 137.867 1220.98 137.867C1219.33 137.867 1218 139.2 1218 140.844C1218 142.489 1219.33 143.822 1220.98 143.822Z" fill="url(#paint4_linear_5301_11246)"/>
<path d="M1220.98 195.734C1222.62 195.734 1223.96 194.401 1223.96 192.756C1223.96 191.112 1222.62 189.778 1220.98 189.778C1219.33 189.778 1218 191.112 1218 192.756C1218 194.401 1219.33 195.734 1220.98 195.734Z" fill="url(#paint5_linear_5301_11246)"/>
<path d="M1220.98 221.689C1222.62 221.689 1223.96 220.356 1223.96 218.711C1223.96 217.067 1222.62 215.733 1220.98 215.733C1219.33 215.733 1218 217.067 1218 218.711C1218 220.356 1219.33 221.689 1220.98 221.689Z" fill="url(#paint6_linear_5301_11246)"/>
<path d="M1220.98 117.867C1222.62 117.867 1223.96 116.534 1223.96 114.889C1223.96 113.244 1222.62 111.911 1220.98 111.911C1219.33 111.911 1218 113.244 1218 114.889C1218 116.534 1219.33 117.867 1220.98 117.867Z" fill="url(#paint7_linear_5301_11246)"/>
<path d="M1220.98 169.778C1222.62 169.778 1223.96 168.445 1223.96 166.8C1223.96 165.155 1222.62 163.822 1220.98 163.822C1219.33 163.822 1218 165.155 1218 166.8C1218 168.445 1219.33 169.778 1220.98 169.778Z" fill="url(#paint8_linear_5301_11246)"/>
<path d="M1246.93 65.9556C1248.58 65.9556 1249.91 64.6224 1249.91 62.9778C1249.91 61.3332 1248.58 60 1246.93 60C1245.29 60 1243.95 61.3332 1243.95 62.9778C1243.95 64.6224 1245.29 65.9556 1246.93 65.9556Z" fill="url(#paint9_linear_5301_11246)"/>
<path d="M1246.93 91.9112C1248.58 91.9112 1249.91 90.578 1249.91 88.9334C1249.91 87.2888 1248.58 85.9556 1246.93 85.9556C1245.29 85.9556 1243.95 87.2888 1243.95 88.9334C1243.95 90.578 1245.29 91.9112 1246.93 91.9112Z" fill="url(#paint10_linear_5301_11246)"/>
<path d="M1246.93 143.822C1248.58 143.822 1249.91 142.489 1249.91 140.844C1249.91 139.2 1248.58 137.867 1246.93 137.867C1245.29 137.867 1243.95 139.2 1243.95 140.844C1243.95 142.489 1245.29 143.822 1246.93 143.822Z" fill="url(#paint11_linear_5301_11246)"/>
<path d="M1246.93 195.734C1248.58 195.734 1249.91 194.401 1249.91 192.756C1249.91 191.112 1248.58 189.778 1246.93 189.778C1245.29 189.778 1243.95 191.112 1243.95 192.756C1243.95 194.401 1245.29 195.734 1246.93 195.734Z" fill="url(#paint12_linear_5301_11246)"/>
<path d="M1246.93 221.689C1248.58 221.689 1249.91 220.356 1249.91 218.711C1249.91 217.067 1248.58 215.733 1246.93 215.733C1245.29 215.733 1243.95 217.067 1243.95 218.711C1243.95 220.356 1245.29 221.689 1246.93 221.689Z" fill="url(#paint13_linear_5301_11246)"/>
<path d="M1246.93 117.867C1248.58 117.867 1249.91 116.534 1249.91 114.889C1249.91 113.244 1248.58 111.911 1246.93 111.911C1245.29 111.911 1243.95 113.244 1243.95 114.889C1243.95 116.534 1245.29 117.867 1246.93 117.867Z" fill="url(#paint14_linear_5301_11246)"/>
<path d="M1246.93 169.778C1248.58 169.778 1249.91 168.445 1249.91 166.8C1249.91 165.155 1248.58 163.822 1246.93 163.822C1245.29 163.822 1243.95 165.155 1243.95 166.8C1243.95 168.445 1245.29 169.778 1246.93 169.778Z" fill="url(#paint15_linear_5301_11246)"/>
<path d="M1272.89 65.9556C1274.54 65.9556 1275.87 64.6224 1275.87 62.9778C1275.87 61.3332 1274.54 60 1272.89 60C1271.25 60 1269.91 61.3332 1269.91 62.9778C1269.91 64.6224 1271.25 65.9556 1272.89 65.9556Z" fill="url(#paint16_linear_5301_11246)"/>
<path d="M1272.89 91.9112C1274.54 91.9112 1275.87 90.578 1275.87 88.9334C1275.87 87.2888 1274.54 85.9556 1272.89 85.9556C1271.25 85.9556 1269.91 87.2888 1269.91 88.9334C1269.91 90.578 1271.25 91.9112 1272.89 91.9112Z" fill="url(#paint17_linear_5301_11246)"/>
<path d="M1272.89 143.822C1274.54 143.822 1275.87 142.489 1275.87 140.844C1275.87 139.2 1274.54 137.867 1272.89 137.867C1271.25 137.867 1269.91 139.2 1269.91 140.844C1269.91 142.489 1271.25 143.822 1272.89 143.822Z" fill="url(#paint18_linear_5301_11246)"/>
<path d="M1272.89 195.734C1274.54 195.734 1275.87 194.401 1275.87 192.756C1275.87 191.112 1274.54 189.778 1272.89 189.778C1271.25 189.778 1269.91 191.112 1269.91 192.756C1269.91 194.401 1271.25 195.734 1272.89 195.734Z" fill="url(#paint19_linear_5301_11246)"/>
<path d="M1272.89 221.689C1274.54 221.689 1275.87 220.356 1275.87 218.711C1275.87 217.067 1274.54 215.733 1272.89 215.733C1271.25 215.733 1269.91 217.067 1269.91 218.711C1269.91 220.356 1271.25 221.689 1272.89 221.689Z" fill="url(#paint20_linear_5301_11246)"/>
<path d="M1272.89 117.867C1274.54 117.867 1275.87 116.534 1275.87 114.889C1275.87 113.244 1274.54 111.911 1272.89 111.911C1271.25 111.911 1269.91 113.244 1269.91 114.889C1269.91 116.534 1271.25 117.867 1272.89 117.867Z" fill="url(#paint21_linear_5301_11246)"/>
<path d="M1272.89 169.778C1274.54 169.778 1275.87 168.445 1275.87 166.8C1275.87 165.155 1274.54 163.822 1272.89 163.822C1271.25 163.822 1269.91 165.155 1269.91 166.8C1269.91 168.445 1271.25 169.778 1272.89 169.778Z" fill="url(#paint22_linear_5301_11246)"/>
<path d="M1298.84 65.9556C1300.49 65.9556 1301.82 64.6224 1301.82 62.9778C1301.82 61.3332 1300.49 60 1298.84 60C1297.2 60 1295.87 61.3332 1295.87 62.9778C1295.87 64.6224 1297.2 65.9556 1298.84 65.9556Z" fill="url(#paint23_linear_5301_11246)"/>
<path d="M1298.84 91.9112C1300.49 91.9112 1301.82 90.578 1301.82 88.9334C1301.82 87.2888 1300.49 85.9556 1298.84 85.9556C1297.2 85.9556 1295.87 87.2888 1295.87 88.9334C1295.87 90.578 1297.2 91.9112 1298.84 91.9112Z" fill="url(#paint24_linear_5301_11246)"/>
<path d="M1298.84 143.822C1300.49 143.822 1301.82 142.489 1301.82 140.844C1301.82 139.2 1300.49 137.867 1298.84 137.867C1297.2 137.867 1295.87 139.2 1295.87 140.844C1295.87 142.489 1297.2 143.822 1298.84 143.822Z" fill="url(#paint25_linear_5301_11246)"/>
<path d="M1298.84 195.734C1300.49 195.734 1301.82 194.401 1301.82 192.756C1301.82 191.112 1300.49 189.778 1298.84 189.778C1297.2 189.778 1295.87 191.112 1295.87 192.756C1295.87 194.401 1297.2 195.734 1298.84 195.734Z" fill="url(#paint26_linear_5301_11246)"/>
<path d="M1298.84 221.689C1300.49 221.689 1301.82 220.356 1301.82 218.711C1301.82 217.067 1300.49 215.733 1298.84 215.733C1297.2 215.733 1295.87 217.067 1295.87 218.711C1295.87 220.356 1297.2 221.689 1298.84 221.689Z" fill="url(#paint27_linear_5301_11246)"/>
<path d="M1298.84 117.867C1300.49 117.867 1301.82 116.534 1301.82 114.889C1301.82 113.244 1300.49 111.911 1298.84 111.911C1297.2 111.911 1295.87 113.244 1295.87 114.889C1295.87 116.534 1297.2 117.867 1298.84 117.867Z" fill="url(#paint28_linear_5301_11246)"/>
<path d="M1298.84 169.778C1300.49 169.778 1301.82 168.445 1301.82 166.8C1301.82 165.155 1300.49 163.822 1298.84 163.822C1297.2 163.822 1295.87 165.155 1295.87 166.8C1295.87 168.445 1297.2 169.778 1298.84 169.778Z" fill="url(#paint29_linear_5301_11246)"/>
<path d="M1324.8 65.9556C1326.44 65.9556 1327.78 64.6224 1327.78 62.9778C1327.78 61.3332 1326.44 60 1324.8 60C1323.15 60 1321.82 61.3332 1321.82 62.9778C1321.82 64.6224 1323.15 65.9556 1324.8 65.9556Z" fill="url(#paint30_linear_5301_11246)"/>
<path d="M1324.8 91.9112C1326.44 91.9112 1327.78 90.578 1327.78 88.9334C1327.78 87.2888 1326.44 85.9556 1324.8 85.9556C1323.15 85.9556 1321.82 87.2888 1321.82 88.9334C1321.82 90.578 1323.15 91.9112 1324.8 91.9112Z" fill="url(#paint31_linear_5301_11246)"/>
<path d="M1324.8 143.822C1326.44 143.822 1327.78 142.489 1327.78 140.844C1327.78 139.2 1326.44 137.867 1324.8 137.867C1323.15 137.867 1321.82 139.2 1321.82 140.844C1321.82 142.489 1323.15 143.822 1324.8 143.822Z" fill="url(#paint32_linear_5301_11246)"/>
<path d="M1324.8 195.734C1326.44 195.734 1327.78 194.401 1327.78 192.756C1327.78 191.112 1326.44 189.778 1324.8 189.778C1323.15 189.778 1321.82 191.112 1321.82 192.756C1321.82 194.401 1323.15 195.734 1324.8 195.734Z" fill="url(#paint33_linear_5301_11246)"/>
<path d="M1324.8 221.689C1326.44 221.689 1327.78 220.356 1327.78 218.711C1327.78 217.067 1326.44 215.733 1324.8 215.733C1323.15 215.733 1321.82 217.067 1321.82 218.711C1321.82 220.356 1323.15 221.689 1324.8 221.689Z" fill="url(#paint34_linear_5301_11246)"/>
<path d="M1324.8 117.867C1326.44 117.867 1327.78 116.534 1327.78 114.889C1327.78 113.244 1326.44 111.911 1324.8 111.911C1323.15 111.911 1321.82 113.244 1321.82 114.889C1321.82 116.534 1323.15 117.867 1324.8 117.867Z" fill="url(#paint35_linear_5301_11246)"/>
<path d="M1324.8 169.778C1326.44 169.778 1327.78 168.445 1327.78 166.8C1327.78 165.155 1326.44 163.822 1324.8 163.822C1323.15 163.822 1321.82 165.155 1321.82 166.8C1321.82 168.445 1323.15 169.778 1324.8 169.778Z" fill="url(#paint36_linear_5301_11246)"/>
<path d="M1350.76 65.9556C1352.4 65.9556 1353.74 64.6224 1353.74 62.9778C1353.74 61.3332 1352.4 60 1350.76 60C1349.11 60 1347.78 61.3332 1347.78 62.9778C1347.78 64.6224 1349.11 65.9556 1350.76 65.9556Z" fill="url(#paint37_linear_5301_11246)"/>
<path d="M1350.76 91.9112C1352.4 91.9112 1353.74 90.578 1353.74 88.9334C1353.74 87.2888 1352.4 85.9556 1350.76 85.9556C1349.11 85.9556 1347.78 87.2888 1347.78 88.9334C1347.78 90.578 1349.11 91.9112 1350.76 91.9112Z" fill="url(#paint38_linear_5301_11246)"/>
<path d="M1350.76 143.822C1352.4 143.822 1353.74 142.489 1353.74 140.844C1353.74 139.2 1352.4 137.867 1350.76 137.867C1349.11 137.867 1347.78 139.2 1347.78 140.844C1347.78 142.489 1349.11 143.822 1350.76 143.822Z" fill="url(#paint39_linear_5301_11246)"/>
<path d="M1350.76 195.734C1352.4 195.734 1353.74 194.401 1353.74 192.756C1353.74 191.112 1352.4 189.778 1350.76 189.778C1349.11 189.778 1347.78 191.112 1347.78 192.756C1347.78 194.401 1349.11 195.734 1350.76 195.734Z" fill="url(#paint40_linear_5301_11246)"/>
<path d="M1350.76 221.689C1352.4 221.689 1353.74 220.356 1353.74 218.711C1353.74 217.067 1352.4 215.733 1350.76 215.733C1349.11 215.733 1347.78 217.067 1347.78 218.711C1347.78 220.356 1349.11 221.689 1350.76 221.689Z" fill="url(#paint41_linear_5301_11246)"/>
<path d="M1350.76 117.867C1352.4 117.867 1353.74 116.534 1353.74 114.889C1353.74 113.244 1352.4 111.911 1350.76 111.911C1349.11 111.911 1347.78 113.244 1347.78 114.889C1347.78 116.534 1349.11 117.867 1350.76 117.867Z" fill="url(#paint42_linear_5301_11246)"/>
<path d="M1350.76 169.778C1352.4 169.778 1353.74 168.445 1353.74 166.8C1353.74 165.155 1352.4 163.822 1350.76 163.822C1349.11 163.822 1347.78 165.155 1347.78 166.8C1347.78 168.445 1349.11 169.778 1350.76 169.778Z" fill="url(#paint43_linear_5301_11246)"/>
<path d="M1376.71 65.9556C1378.36 65.9556 1379.69 64.6224 1379.69 62.9778C1379.69 61.3332 1378.36 60 1376.71 60C1375.07 60 1373.73 61.3332 1373.73 62.9778C1373.73 64.6224 1375.07 65.9556 1376.71 65.9556Z" fill="url(#paint44_linear_5301_11246)"/>
<path d="M1376.71 91.9112C1378.36 91.9112 1379.69 90.578 1379.69 88.9334C1379.69 87.2888 1378.36 85.9556 1376.71 85.9556C1375.07 85.9556 1373.73 87.2888 1373.73 88.9334C1373.73 90.578 1375.07 91.9112 1376.71 91.9112Z" fill="url(#paint45_linear_5301_11246)"/>
<path d="M1376.71 143.822C1378.36 143.822 1379.69 142.489 1379.69 140.844C1379.69 139.2 1378.36 137.867 1376.71 137.867C1375.07 137.867 1373.73 139.2 1373.73 140.844C1373.73 142.489 1375.07 143.822 1376.71 143.822Z" fill="url(#paint46_linear_5301_11246)"/>
<path d="M1376.71 195.734C1378.36 195.734 1379.69 194.401 1379.69 192.756C1379.69 191.112 1378.36 189.778 1376.71 189.778C1375.07 189.778 1373.73 191.112 1373.73 192.756C1373.73 194.401 1375.07 195.734 1376.71 195.734Z" fill="url(#paint47_linear_5301_11246)"/>
<path d="M1376.71 221.689C1378.36 221.689 1379.69 220.356 1379.69 218.711C1379.69 217.067 1378.36 215.733 1376.71 215.733C1375.07 215.733 1373.73 217.067 1373.73 218.711C1373.73 220.356 1375.07 221.689 1376.71 221.689Z" fill="url(#paint48_linear_5301_11246)"/>
<path d="M1376.71 117.867C1378.36 117.867 1379.69 116.534 1379.69 114.889C1379.69 113.244 1378.36 111.911 1376.71 111.911C1375.07 111.911 1373.73 113.244 1373.73 114.889C1373.73 116.534 1375.07 117.867 1376.71 117.867Z" fill="url(#paint49_linear_5301_11246)"/>
<path d="M1376.71 169.778C1378.36 169.778 1379.69 168.445 1379.69 166.8C1379.69 165.155 1378.36 163.822 1376.71 163.822C1375.07 163.822 1373.73 165.155 1373.73 166.8C1373.73 168.445 1375.07 169.778 1376.71 169.778Z" fill="url(#paint50_linear_5301_11246)"/>
</g>
<g opacity="0.2" clip-path="url(#clip2_5301_11246)">
<path d="M62.9778 389.956C64.6224 389.956 65.9556 388.622 65.9556 386.978C65.9556 385.333 64.6224 384 62.9778 384C61.3332 384 60 385.333 60 386.978C60 388.622 61.3332 389.956 62.9778 389.956Z" fill="url(#paint51_linear_5301_11246)"/>
<path d="M62.9778 415.911C64.6224 415.911 65.9556 414.578 65.9556 412.933C65.9556 411.289 64.6224 409.956 62.9778 409.956C61.3332 409.956 60 411.289 60 412.933C60 414.578 61.3332 415.911 62.9778 415.911Z" fill="url(#paint52_linear_5301_11246)"/>
<path d="M62.9778 467.822C64.6224 467.822 65.9556 466.489 65.9556 464.844C65.9556 463.2 64.6224 461.867 62.9778 461.867C61.3332 461.867 60 463.2 60 464.844C60 466.489 61.3332 467.822 62.9778 467.822Z" fill="url(#paint53_linear_5301_11246)"/>
<path d="M62.9778 519.734C64.6224 519.734 65.9556 518.401 65.9556 516.756C65.9556 515.112 64.6224 513.778 62.9778 513.778C61.3332 513.778 60 515.112 60 516.756C60 518.401 61.3332 519.734 62.9778 519.734Z" fill="url(#paint54_linear_5301_11246)"/>
<path d="M62.9778 545.689C64.6224 545.689 65.9556 544.356 65.9556 542.711C65.9556 541.067 64.6224 539.733 62.9778 539.733C61.3332 539.733 60 541.067 60 542.711C60 544.356 61.3332 545.689 62.9778 545.689Z" fill="url(#paint55_linear_5301_11246)"/>
<path d="M62.9778 441.867C64.6224 441.867 65.9556 440.534 65.9556 438.889C65.9556 437.244 64.6224 435.911 62.9778 435.911C61.3332 435.911 60 437.244 60 438.889C60 440.534 61.3332 441.867 62.9778 441.867Z" fill="url(#paint56_linear_5301_11246)"/>
<path d="M62.9778 493.778C64.6224 493.778 65.9556 492.445 65.9556 490.8C65.9556 489.155 64.6224 487.822 62.9778 487.822C61.3332 487.822 60 489.155 60 490.8C60 492.445 61.3332 493.778 62.9778 493.778Z" fill="url(#paint57_linear_5301_11246)"/>
<path d="M88.9309 389.956C90.5755 389.956 91.9087 388.622 91.9087 386.978C91.9087 385.333 90.5755 384 88.9309 384C87.2863 384 85.9531 385.333 85.9531 386.978C85.9531 388.622 87.2863 389.956 88.9309 389.956Z" fill="url(#paint58_linear_5301_11246)"/>
<path d="M88.9309 415.911C90.5755 415.911 91.9087 414.578 91.9087 412.933C91.9087 411.289 90.5755 409.956 88.9309 409.956C87.2863 409.956 85.9531 411.289 85.9531 412.933C85.9531 414.578 87.2863 415.911 88.9309 415.911Z" fill="url(#paint59_linear_5301_11246)"/>
<path d="M88.9309 467.822C90.5755 467.822 91.9087 466.489 91.9087 464.844C91.9087 463.2 90.5755 461.867 88.9309 461.867C87.2863 461.867 85.9531 463.2 85.9531 464.844C85.9531 466.489 87.2863 467.822 88.9309 467.822Z" fill="url(#paint60_linear_5301_11246)"/>
<path d="M88.9309 519.734C90.5755 519.734 91.9087 518.401 91.9087 516.756C91.9087 515.112 90.5755 513.778 88.9309 513.778C87.2863 513.778 85.9531 515.112 85.9531 516.756C85.9531 518.401 87.2863 519.734 88.9309 519.734Z" fill="url(#paint61_linear_5301_11246)"/>
<path d="M88.9309 545.689C90.5755 545.689 91.9087 544.356 91.9087 542.711C91.9087 541.067 90.5755 539.733 88.9309 539.733C87.2863 539.733 85.9531 541.067 85.9531 542.711C85.9531 544.356 87.2863 545.689 88.9309 545.689Z" fill="url(#paint62_linear_5301_11246)"/>
<path d="M88.9309 441.867C90.5755 441.867 91.9087 440.534 91.9087 438.889C91.9087 437.244 90.5755 435.911 88.9309 435.911C87.2863 435.911 85.9531 437.244 85.9531 438.889C85.9531 440.534 87.2863 441.867 88.9309 441.867Z" fill="url(#paint63_linear_5301_11246)"/>
<path d="M88.9309 493.778C90.5755 493.778 91.9087 492.445 91.9087 490.8C91.9087 489.155 90.5755 487.822 88.9309 487.822C87.2863 487.822 85.9531 489.155 85.9531 490.8C85.9531 492.445 87.2863 493.778 88.9309 493.778Z" fill="url(#paint64_linear_5301_11246)"/>
<path d="M114.892 389.956C116.536 389.956 117.87 388.622 117.87 386.978C117.87 385.333 116.536 384 114.892 384C113.247 384 111.914 385.333 111.914 386.978C111.914 388.622 113.247 389.956 114.892 389.956Z" fill="url(#paint65_linear_5301_11246)"/>
<path d="M114.892 415.911C116.536 415.911 117.87 414.578 117.87 412.933C117.87 411.289 116.536 409.956 114.892 409.956C113.247 409.956 111.914 411.289 111.914 412.933C111.914 414.578 113.247 415.911 114.892 415.911Z" fill="url(#paint66_linear_5301_11246)"/>
<path d="M114.892 467.822C116.536 467.822 117.87 466.489 117.87 464.844C117.87 463.2 116.536 461.867 114.892 461.867C113.247 461.867 111.914 463.2 111.914 464.844C111.914 466.489 113.247 467.822 114.892 467.822Z" fill="url(#paint67_linear_5301_11246)"/>
<path d="M114.892 519.734C116.536 519.734 117.87 518.401 117.87 516.756C117.87 515.112 116.536 513.778 114.892 513.778C113.247 513.778 111.914 515.112 111.914 516.756C111.914 518.401 113.247 519.734 114.892 519.734Z" fill="url(#paint68_linear_5301_11246)"/>
<path d="M114.892 545.689C116.536 545.689 117.87 544.356 117.87 542.711C117.87 541.067 116.536 539.733 114.892 539.733C113.247 539.733 111.914 541.067 111.914 542.711C111.914 544.356 113.247 545.689 114.892 545.689Z" fill="url(#paint69_linear_5301_11246)"/>
<path d="M114.892 441.867C116.536 441.867 117.87 440.534 117.87 438.889C117.87 437.244 116.536 435.911 114.892 435.911C113.247 435.911 111.914 437.244 111.914 438.889C111.914 440.534 113.247 441.867 114.892 441.867Z" fill="url(#paint70_linear_5301_11246)"/>
<path d="M114.892 493.778C116.536 493.778 117.87 492.445 117.87 490.8C117.87 489.155 116.536 487.822 114.892 487.822C113.247 487.822 111.914 489.155 111.914 490.8C111.914 492.445 113.247 493.778 114.892 493.778Z" fill="url(#paint71_linear_5301_11246)"/>
<path d="M140.845 389.956C142.49 389.956 143.823 388.622 143.823 386.978C143.823 385.333 142.49 384 140.845 384C139.2 384 137.867 385.333 137.867 386.978C137.867 388.622 139.2 389.956 140.845 389.956Z" fill="url(#paint72_linear_5301_11246)"/>
<path d="M140.845 415.911C142.49 415.911 143.823 414.578 143.823 412.933C143.823 411.289 142.49 409.956 140.845 409.956C139.2 409.956 137.867 411.289 137.867 412.933C137.867 414.578 139.2 415.911 140.845 415.911Z" fill="url(#paint73_linear_5301_11246)"/>
<path d="M140.845 467.822C142.49 467.822 143.823 466.489 143.823 464.844C143.823 463.2 142.49 461.867 140.845 461.867C139.2 461.867 137.867 463.2 137.867 464.844C137.867 466.489 139.2 467.822 140.845 467.822Z" fill="url(#paint74_linear_5301_11246)"/>
<path d="M140.845 519.734C142.49 519.734 143.823 518.401 143.823 516.756C143.823 515.112 142.49 513.778 140.845 513.778C139.2 513.778 137.867 515.112 137.867 516.756C137.867 518.401 139.2 519.734 140.845 519.734Z" fill="url(#paint75_linear_5301_11246)"/>
<path d="M140.845 545.689C142.49 545.689 143.823 544.356 143.823 542.711C143.823 541.067 142.49 539.733 140.845 539.733C139.2 539.733 137.867 541.067 137.867 542.711C137.867 544.356 139.2 545.689 140.845 545.689Z" fill="url(#paint76_linear_5301_11246)"/>
<path d="M140.845 441.867C142.49 441.867 143.823 440.534 143.823 438.889C143.823 437.244 142.49 435.911 140.845 435.911C139.2 435.911 137.867 437.244 137.867 438.889C137.867 440.534 139.2 441.867 140.845 441.867Z" fill="url(#paint77_linear_5301_11246)"/>
<path d="M140.845 493.778C142.49 493.778 143.823 492.445 143.823 490.8C143.823 489.155 142.49 487.822 140.845 487.822C139.2 487.822 137.867 489.155 137.867 490.8C137.867 492.445 139.2 493.778 140.845 493.778Z" fill="url(#paint78_linear_5301_11246)"/>
<path d="M166.798 389.956C168.443 389.956 169.776 388.622 169.776 386.978C169.776 385.333 168.443 384 166.798 384C165.154 384 163.82 385.333 163.82 386.978C163.82 388.622 165.154 389.956 166.798 389.956Z" fill="url(#paint79_linear_5301_11246)"/>
<path d="M166.798 415.911C168.443 415.911 169.776 414.578 169.776 412.933C169.776 411.289 168.443 409.956 166.798 409.956C165.154 409.956 163.82 411.289 163.82 412.933C163.82 414.578 165.154 415.911 166.798 415.911Z" fill="url(#paint80_linear_5301_11246)"/>
<path d="M166.798 467.822C168.443 467.822 169.776 466.489 169.776 464.844C169.776 463.2 168.443 461.867 166.798 461.867C165.154 461.867 163.82 463.2 163.82 464.844C163.82 466.489 165.154 467.822 166.798 467.822Z" fill="url(#paint81_linear_5301_11246)"/>
<path d="M166.798 519.734C168.443 519.734 169.776 518.401 169.776 516.756C169.776 515.112 168.443 513.778 166.798 513.778C165.154 513.778 163.82 515.112 163.82 516.756C163.82 518.401 165.154 519.734 166.798 519.734Z" fill="url(#paint82_linear_5301_11246)"/>
<path d="M166.798 545.689C168.443 545.689 169.776 544.356 169.776 542.711C169.776 541.067 168.443 539.733 166.798 539.733C165.154 539.733 163.82 541.067 163.82 542.711C163.82 544.356 165.154 545.689 166.798 545.689Z" fill="url(#paint83_linear_5301_11246)"/>
<path d="M166.798 441.867C168.443 441.867 169.776 440.534 169.776 438.889C169.776 437.244 168.443 435.911 166.798 435.911C165.154 435.911 163.82 437.244 163.82 438.889C163.82 440.534 165.154 441.867 166.798 441.867Z" fill="url(#paint84_linear_5301_11246)"/>
<path d="M166.798 493.778C168.443 493.778 169.776 492.445 169.776 490.8C169.776 489.155 168.443 487.822 166.798 487.822C165.154 487.822 163.82 489.155 163.82 490.8C163.82 492.445 165.154 493.778 166.798 493.778Z" fill="url(#paint85_linear_5301_11246)"/>
<path d="M192.759 389.956C194.404 389.956 195.737 388.622 195.737 386.978C195.737 385.333 194.404 384 192.759 384C191.114 384 189.781 385.333 189.781 386.978C189.781 388.622 191.114 389.956 192.759 389.956Z" fill="url(#paint86_linear_5301_11246)"/>
<path d="M192.759 415.911C194.404 415.911 195.737 414.578 195.737 412.933C195.737 411.289 194.404 409.956 192.759 409.956C191.114 409.956 189.781 411.289 189.781 412.933C189.781 414.578 191.114 415.911 192.759 415.911Z" fill="url(#paint87_linear_5301_11246)"/>
<path d="M192.759 467.822C194.404 467.822 195.737 466.489 195.737 464.844C195.737 463.2 194.404 461.867 192.759 461.867C191.114 461.867 189.781 463.2 189.781 464.844C189.781 466.489 191.114 467.822 192.759 467.822Z" fill="url(#paint88_linear_5301_11246)"/>
<path d="M192.759 519.734C194.404 519.734 195.737 518.401 195.737 516.756C195.737 515.112 194.404 513.778 192.759 513.778C191.114 513.778 189.781 515.112 189.781 516.756C189.781 518.401 191.114 519.734 192.759 519.734Z" fill="url(#paint89_linear_5301_11246)"/>
<path d="M192.759 545.689C194.404 545.689 195.737 544.356 195.737 542.711C195.737 541.067 194.404 539.733 192.759 539.733C191.114 539.733 189.781 541.067 189.781 542.711C189.781 544.356 191.114 545.689 192.759 545.689Z" fill="url(#paint90_linear_5301_11246)"/>
<path d="M192.759 441.867C194.404 441.867 195.737 440.534 195.737 438.889C195.737 437.244 194.404 435.911 192.759 435.911C191.114 435.911 189.781 437.244 189.781 438.889C189.781 440.534 191.114 441.867 192.759 441.867Z" fill="url(#paint91_linear_5301_11246)"/>
<path d="M192.759 493.778C194.404 493.778 195.737 492.445 195.737 490.8C195.737 489.155 194.404 487.822 192.759 487.822C191.114 487.822 189.781 489.155 189.781 490.8C189.781 492.445 191.114 493.778 192.759 493.778Z" fill="url(#paint92_linear_5301_11246)"/>
<path d="M218.712 389.956C220.357 389.956 221.69 388.622 221.69 386.978C221.69 385.333 220.357 384 218.712 384C217.068 384 215.734 385.333 215.734 386.978C215.734 388.622 217.068 389.956 218.712 389.956Z" fill="url(#paint93_linear_5301_11246)"/>
<path d="M218.712 415.911C220.357 415.911 221.69 414.578 221.69 412.933C221.69 411.289 220.357 409.956 218.712 409.956C217.068 409.956 215.734 411.289 215.734 412.933C215.734 414.578 217.068 415.911 218.712 415.911Z" fill="url(#paint94_linear_5301_11246)"/>
<path d="M218.712 467.822C220.357 467.822 221.69 466.489 221.69 464.844C221.69 463.2 220.357 461.867 218.712 461.867C217.068 461.867 215.734 463.2 215.734 464.844C215.734 466.489 217.068 467.822 218.712 467.822Z" fill="url(#paint95_linear_5301_11246)"/>
<path d="M218.712 519.734C220.357 519.734 221.69 518.401 221.69 516.756C221.69 515.112 220.357 513.778 218.712 513.778C217.068 513.778 215.734 515.112 215.734 516.756C215.734 518.401 217.068 519.734 218.712 519.734Z" fill="url(#paint96_linear_5301_11246)"/>
<path d="M218.712 545.689C220.357 545.689 221.69 544.356 221.69 542.711C221.69 541.067 220.357 539.733 218.712 539.733C217.068 539.733 215.734 541.067 215.734 542.711C215.734 544.356 217.068 545.689 218.712 545.689Z" fill="url(#paint97_linear_5301_11246)"/>
<path d="M218.712 441.867C220.357 441.867 221.69 440.534 221.69 438.889C221.69 437.244 220.357 435.911 218.712 435.911C217.068 435.911 215.734 437.244 215.734 438.889C215.734 440.534 217.068 441.867 218.712 441.867Z" fill="url(#paint98_linear_5301_11246)"/>
<path d="M218.712 493.778C220.357 493.778 221.69 492.445 221.69 490.8C221.69 489.155 220.357 487.822 218.712 487.822C217.068 487.822 215.734 489.155 215.734 490.8C215.734 492.445 217.068 493.778 218.712 493.778Z" fill="url(#paint99_linear_5301_11246)"/>
</g>
</g>
<defs>
<linearGradient id="paint0_linear_5301_11246" x1="140" y1="-20.9524" x2="-120.002" y2="-21.1286" gradientUnits="userSpaceOnUse">
<stop stop-color="#2F9A64"/>
<stop offset="1" stop-color="#177CB4"/>
</linearGradient>
<linearGradient id="paint1_linear_5301_11246" x1="1560" y1="565.048" x2="1300" y2="564.871" gradientUnits="userSpaceOnUse">
<stop stop-color="#2F9A64"/>
<stop offset="1" stop-color="#177CB4"/>
</linearGradient>
<linearGradient id="paint2_linear_5301_11246" x1="1223.96" y1="62.2688" x2="1218" y2="62.2648" gradientUnits="userSpaceOnUse">
<stop stop-color="#2F9A64"/>
<stop offset="1" stop-color="#177CB4"/>
</linearGradient>
<linearGradient id="paint3_linear_5301_11246" x1="1223.96" y1="88.2244" x2="1218" y2="88.2203" gradientUnits="userSpaceOnUse">
<stop stop-color="#2F9A64"/>
<stop offset="1" stop-color="#177CB4"/>
</linearGradient>
<linearGradient id="paint4_linear_5301_11246" x1="1223.96" y1="140.136" x2="1218" y2="140.131" gradientUnits="userSpaceOnUse">
<stop stop-color="#2F9A64"/>
<stop offset="1" stop-color="#177CB4"/>
</linearGradient>
<linearGradient id="paint5_linear_5301_11246" x1="1223.96" y1="192.047" x2="1218" y2="192.043" gradientUnits="userSpaceOnUse">
<stop stop-color="#2F9A64"/>
<stop offset="1" stop-color="#177CB4"/>
</linearGradient>
<linearGradient id="paint6_linear_5301_11246" x1="1223.96" y1="218.002" x2="1218" y2="217.998" gradientUnits="userSpaceOnUse">
<stop stop-color="#2F9A64"/>
<stop offset="1" stop-color="#177CB4"/>
</linearGradient>
<linearGradient id="paint7_linear_5301_11246" x1="1223.96" y1="114.18" x2="1218" y2="114.176" gradientUnits="userSpaceOnUse">
<stop stop-color="#2F9A64"/>
<stop offset="1" stop-color="#177CB4"/>
</linearGradient>
<linearGradient id="paint8_linear_5301_11246" x1="1223.96" y1="166.091" x2="1218" y2="166.087" gradientUnits="userSpaceOnUse">
<stop stop-color="#2F9A64"/>
<stop offset="1" stop-color="#177CB4"/>
</linearGradient>
<linearGradient id="paint9_linear_5301_11246" x1="1249.91" y1="62.2688" x2="1243.95" y2="62.2648" gradientUnits="userSpaceOnUse">
<stop stop-color="#2F9A64"/>
<stop offset="1" stop-color="#177CB4"/>
</linearGradient>
<linearGradient id="paint10_linear_5301_11246" x1="1249.91" y1="88.2244" x2="1243.95" y2="88.2203" gradientUnits="userSpaceOnUse">
<stop stop-color="#2F9A64"/>
<stop offset="1" stop-color="#177CB4"/>
</linearGradient>
<linearGradient id="paint11_linear_5301_11246" x1="1249.91" y1="140.136" x2="1243.95" y2="140.131" gradientUnits="userSpaceOnUse">
<stop stop-color="#2F9A64"/>
<stop offset="1" stop-color="#177CB4"/>
</linearGradient>
<linearGradient id="paint12_linear_5301_11246" x1="1249.91" y1="192.047" x2="1243.95" y2="192.043" gradientUnits="userSpaceOnUse">
<stop stop-color="#2F9A64"/>
<stop offset="1" stop-color="#177CB4"/>
</linearGradient>
<linearGradient id="paint13_linear_5301_11246" x1="1249.91" y1="218.002" x2="1243.95" y2="217.998" gradientUnits="userSpaceOnUse">
<stop stop-color="#2F9A64"/>
<stop offset="1" stop-color="#177CB4"/>
</linearGradient>
<linearGradient id="paint14_linear_5301_11246" x1="1249.91" y1="114.18" x2="1243.95" y2="114.176" gradientUnits="userSpaceOnUse">
<stop stop-color="#2F9A64"/>
<stop offset="1" stop-color="#177CB4"/>
</linearGradient>
<linearGradient id="paint15_linear_5301_11246" x1="1249.91" y1="166.091" x2="1243.95" y2="166.087" gradientUnits="userSpaceOnUse">
<stop stop-color="#2F9A64"/>
<stop offset="1" stop-color="#177CB4"/>
</linearGradient>
<linearGradient id="paint16_linear_5301_11246" x1="1275.87" y1="62.2688" x2="1269.91" y2="62.2648" gradientUnits="userSpaceOnUse">
<stop stop-color="#2F9A64"/>
<stop offset="1" stop-color="#177CB4"/>
</linearGradient>
<linearGradient id="paint17_linear_5301_11246" x1="1275.87" y1="88.2244" x2="1269.91" y2="88.2203" gradientUnits="userSpaceOnUse">
<stop stop-color="#2F9A64"/>
<stop offset="1" stop-color="#177CB4"/>
</linearGradient>
<linearGradient id="paint18_linear_5301_11246" x1="1275.87" y1="140.136" x2="1269.91" y2="140.131" gradientUnits="userSpaceOnUse">
<stop stop-color="#2F9A64"/>
<stop offset="1" stop-color="#177CB4"/>
</linearGradient>
<linearGradient id="paint19_linear_5301_11246" x1="1275.87" y1="192.047" x2="1269.91" y2="192.043" gradientUnits="userSpaceOnUse">
<stop stop-color="#2F9A64"/>
<stop offset="1" stop-color="#177CB4"/>
</linearGradient>
<linearGradient id="paint20_linear_5301_11246" x1="1275.87" y1="218.002" x2="1269.91" y2="217.998" gradientUnits="userSpaceOnUse">
<stop stop-color="#2F9A64"/>
<stop offset="1" stop-color="#177CB4"/>
</linearGradient>
<linearGradient id="paint21_linear_5301_11246" x1="1275.87" y1="114.18" x2="1269.91" y2="114.176" gradientUnits="userSpaceOnUse">
<stop stop-color="#2F9A64"/>
<stop offset="1" stop-color="#177CB4"/>
</linearGradient>
<linearGradient id="paint22_linear_5301_11246" x1="1275.87" y1="166.091" x2="1269.91" y2="166.087" gradientUnits="userSpaceOnUse">
<stop stop-color="#2F9A64"/>
<stop offset="1" stop-color="#177CB4"/>
</linearGradient>
<linearGradient id="paint23_linear_5301_11246" x1="1301.82" y1="62.2688" x2="1295.87" y2="62.2648" gradientUnits="userSpaceOnUse">
<stop stop-color="#2F9A64"/>
<stop offset="1" stop-color="#177CB4"/>
</linearGradient>
<linearGradient id="paint24_linear_5301_11246" x1="1301.82" y1="88.2244" x2="1295.87" y2="88.2203" gradientUnits="userSpaceOnUse">
<stop stop-color="#2F9A64"/>
<stop offset="1" stop-color="#177CB4"/>
</linearGradient>
<linearGradient id="paint25_linear_5301_11246" x1="1301.82" y1="140.136" x2="1295.87" y2="140.131" gradientUnits="userSpaceOnUse">
<stop stop-color="#2F9A64"/>
<stop offset="1" stop-color="#177CB4"/>
</linearGradient>
<linearGradient id="paint26_linear_5301_11246" x1="1301.82" y1="192.047" x2="1295.87" y2="192.043" gradientUnits="userSpaceOnUse">
<stop stop-color="#2F9A64"/>
<stop offset="1" stop-color="#177CB4"/>
</linearGradient>
<linearGradient id="paint27_linear_5301_11246" x1="1301.82" y1="218.002" x2="1295.87" y2="217.998" gradientUnits="userSpaceOnUse">
<stop stop-color="#2F9A64"/>
<stop offset="1" stop-color="#177CB4"/>
</linearGradient>
<linearGradient id="paint28_linear_5301_11246" x1="1301.82" y1="114.18" x2="1295.87" y2="114.176" gradientUnits="userSpaceOnUse">
<stop stop-color="#2F9A64"/>
<stop offset="1" stop-color="#177CB4"/>
</linearGradient>
<linearGradient id="paint29_linear_5301_11246" x1="1301.82" y1="166.091" x2="1295.87" y2="166.087" gradientUnits="userSpaceOnUse">
<stop stop-color="#2F9A64"/>
<stop offset="1" stop-color="#177CB4"/>
</linearGradient>
<linearGradient id="paint30_linear_5301_11246" x1="1327.78" y1="62.2688" x2="1321.82" y2="62.2648" gradientUnits="userSpaceOnUse">
<stop stop-color="#2F9A64"/>
<stop offset="1" stop-color="#177CB4"/>
</linearGradient>
<linearGradient id="paint31_linear_5301_11246" x1="1327.78" y1="88.2244" x2="1321.82" y2="88.2203" gradientUnits="userSpaceOnUse">
<stop stop-color="#2F9A64"/>
<stop offset="1" stop-color="#177CB4"/>
</linearGradient>
<linearGradient id="paint32_linear_5301_11246" x1="1327.78" y1="140.136" x2="1321.82" y2="140.131" gradientUnits="userSpaceOnUse">
<stop stop-color="#2F9A64"/>
<stop offset="1" stop-color="#177CB4"/>
</linearGradient>
<linearGradient id="paint33_linear_5301_11246" x1="1327.78" y1="192.047" x2="1321.82" y2="192.043" gradientUnits="userSpaceOnUse">
<stop stop-color="#2F9A64"/>
<stop offset="1" stop-color="#177CB4"/>
</linearGradient>
<linearGradient id="paint34_linear_5301_11246" x1="1327.78" y1="218.002" x2="1321.82" y2="217.998" gradientUnits="userSpaceOnUse">
<stop stop-color="#2F9A64"/>
<stop offset="1" stop-color="#177CB4"/>
</linearGradient>
<linearGradient id="paint35_linear_5301_11246" x1="1327.78" y1="114.18" x2="1321.82" y2="114.176" gradientUnits="userSpaceOnUse">
<stop stop-color="#2F9A64"/>
<stop offset="1" stop-color="#177CB4"/>
</linearGradient>
<linearGradient id="paint36_linear_5301_11246" x1="1327.78" y1="166.091" x2="1321.82" y2="166.087" gradientUnits="userSpaceOnUse">
<stop stop-color="#2F9A64"/>
<stop offset="1" stop-color="#177CB4"/>
</linearGradient>
<linearGradient id="paint37_linear_5301_11246" x1="1353.74" y1="62.2688" x2="1347.78" y2="62.2648" gradientUnits="userSpaceOnUse">
<stop stop-color="#2F9A64"/>
<stop offset="1" stop-color="#177CB4"/>
</linearGradient>
<linearGradient id="paint38_linear_5301_11246" x1="1353.74" y1="88.2244" x2="1347.78" y2="88.2203" gradientUnits="userSpaceOnUse">
<stop stop-color="#2F9A64"/>
<stop offset="1" stop-color="#177CB4"/>
</linearGradient>
<linearGradient id="paint39_linear_5301_11246" x1="1353.74" y1="140.136" x2="1347.78" y2="140.131" gradientUnits="userSpaceOnUse">
<stop stop-color="#2F9A64"/>
<stop offset="1" stop-color="#177CB4"/>
</linearGradient>
<linearGradient id="paint40_linear_5301_11246" x1="1353.74" y1="192.047" x2="1347.78" y2="192.043" gradientUnits="userSpaceOnUse">
<stop stop-color="#2F9A64"/>
<stop offset="1" stop-color="#177CB4"/>
</linearGradient>
<linearGradient id="paint41_linear_5301_11246" x1="1353.74" y1="218.002" x2="1347.78" y2="217.998" gradientUnits="userSpaceOnUse">
<stop stop-color="#2F9A64"/>
<stop offset="1" stop-color="#177CB4"/>
</linearGradient>
<linearGradient id="paint42_linear_5301_11246" x1="1353.74" y1="114.18" x2="1347.78" y2="114.176" gradientUnits="userSpaceOnUse">
<stop stop-color="#2F9A64"/>
<stop offset="1" stop-color="#177CB4"/>
</linearGradient>
<linearGradient id="paint43_linear_5301_11246" x1="1353.74" y1="166.091" x2="1347.78" y2="166.087" gradientUnits="userSpaceOnUse">
<stop stop-color="#2F9A64"/>
<stop offset="1" stop-color="#177CB4"/>
</linearGradient>
<linearGradient id="paint44_linear_5301_11246" x1="1379.69" y1="62.2688" x2="1373.73" y2="62.2648" gradientUnits="userSpaceOnUse">
<stop stop-color="#2F9A64"/>
<stop offset="1" stop-color="#177CB4"/>
</linearGradient>
<linearGradient id="paint45_linear_5301_11246" x1="1379.69" y1="88.2244" x2="1373.73" y2="88.2203" gradientUnits="userSpaceOnUse">
<stop stop-color="#2F9A64"/>
<stop offset="1" stop-color="#177CB4"/>
</linearGradient>
<linearGradient id="paint46_linear_5301_11246" x1="1379.69" y1="140.136" x2="1373.73" y2="140.131" gradientUnits="userSpaceOnUse">
<stop stop-color="#2F9A64"/>
<stop offset="1" stop-color="#177CB4"/>
</linearGradient>
<linearGradient id="paint47_linear_5301_11246" x1="1379.69" y1="192.047" x2="1373.73" y2="192.043" gradientUnits="userSpaceOnUse">
<stop stop-color="#2F9A64"/>
<stop offset="1" stop-color="#177CB4"/>
</linearGradient>
<linearGradient id="paint48_linear_5301_11246" x1="1379.69" y1="218.002" x2="1373.73" y2="217.998" gradientUnits="userSpaceOnUse">
<stop stop-color="#2F9A64"/>
<stop offset="1" stop-color="#177CB4"/>
</linearGradient>
<linearGradient id="paint49_linear_5301_11246" x1="1379.69" y1="114.18" x2="1373.73" y2="114.176" gradientUnits="userSpaceOnUse">
<stop stop-color="#2F9A64"/>
<stop offset="1" stop-color="#177CB4"/>
</linearGradient>
<linearGradient id="paint50_linear_5301_11246" x1="1379.69" y1="166.091" x2="1373.73" y2="166.087" gradientUnits="userSpaceOnUse">
<stop stop-color="#2F9A64"/>
<stop offset="1" stop-color="#177CB4"/>
</linearGradient>
<linearGradient id="paint51_linear_5301_11246" x1="65.9556" y1="386.269" x2="60" y2="386.265" gradientUnits="userSpaceOnUse">
<stop stop-color="#2F9A64"/>
<stop offset="1" stop-color="#177CB4"/>
</linearGradient>
<linearGradient id="paint52_linear_5301_11246" x1="65.9556" y1="412.224" x2="60" y2="412.22" gradientUnits="userSpaceOnUse">
<stop stop-color="#2F9A64"/>
<stop offset="1" stop-color="#177CB4"/>
</linearGradient>
<linearGradient id="paint53_linear_5301_11246" x1="65.9556" y1="464.136" x2="60" y2="464.131" gradientUnits="userSpaceOnUse">
<stop stop-color="#2F9A64"/>
<stop offset="1" stop-color="#177CB4"/>
</linearGradient>
<linearGradient id="paint54_linear_5301_11246" x1="65.9556" y1="516.047" x2="60" y2="516.043" gradientUnits="userSpaceOnUse">
<stop stop-color="#2F9A64"/>
<stop offset="1" stop-color="#177CB4"/>
</linearGradient>
<linearGradient id="paint55_linear_5301_11246" x1="65.9556" y1="542.002" x2="60" y2="541.998" gradientUnits="userSpaceOnUse">
<stop stop-color="#2F9A64"/>
<stop offset="1" stop-color="#177CB4"/>
</linearGradient>
<linearGradient id="paint56_linear_5301_11246" x1="65.9556" y1="438.18" x2="60" y2="438.176" gradientUnits="userSpaceOnUse">
<stop stop-color="#2F9A64"/>
<stop offset="1" stop-color="#177CB4"/>
</linearGradient>
<linearGradient id="paint57_linear_5301_11246" x1="65.9556" y1="490.091" x2="60" y2="490.087" gradientUnits="userSpaceOnUse">
<stop stop-color="#2F9A64"/>
<stop offset="1" stop-color="#177CB4"/>
</linearGradient>
<linearGradient id="paint58_linear_5301_11246" x1="91.9087" y1="386.269" x2="85.9531" y2="386.265" gradientUnits="userSpaceOnUse">
<stop stop-color="#2F9A64"/>
<stop offset="1" stop-color="#177CB4"/>
</linearGradient>
<linearGradient id="paint59_linear_5301_11246" x1="91.9087" y1="412.224" x2="85.9531" y2="412.22" gradientUnits="userSpaceOnUse">
<stop stop-color="#2F9A64"/>
<stop offset="1" stop-color="#177CB4"/>
</linearGradient>
<linearGradient id="paint60_linear_5301_11246" x1="91.9087" y1="464.136" x2="85.9531" y2="464.131" gradientUnits="userSpaceOnUse">
<stop stop-color="#2F9A64"/>
<stop offset="1" stop-color="#177CB4"/>
</linearGradient>
<linearGradient id="paint61_linear_5301_11246" x1="91.9087" y1="516.047" x2="85.9531" y2="516.043" gradientUnits="userSpaceOnUse">
<stop stop-color="#2F9A64"/>
<stop offset="1" stop-color="#177CB4"/>
</linearGradient>
<linearGradient id="paint62_linear_5301_11246" x1="91.9087" y1="542.002" x2="85.9531" y2="541.998" gradientUnits="userSpaceOnUse">
<stop stop-color="#2F9A64"/>
<stop offset="1" stop-color="#177CB4"/>
</linearGradient>
<linearGradient id="paint63_linear_5301_11246" x1="91.9087" y1="438.18" x2="85.9531" y2="438.176" gradientUnits="userSpaceOnUse">
<stop stop-color="#2F9A64"/>
<stop offset="1" stop-color="#177CB4"/>
</linearGradient>
<linearGradient id="paint64_linear_5301_11246" x1="91.9087" y1="490.091" x2="85.9531" y2="490.087" gradientUnits="userSpaceOnUse">
<stop stop-color="#2F9A64"/>
<stop offset="1" stop-color="#177CB4"/>
</linearGradient>
<linearGradient id="paint65_linear_5301_11246" x1="117.87" y1="386.269" x2="111.914" y2="386.265" gradientUnits="userSpaceOnUse">
<stop stop-color="#2F9A64"/>
<stop offset="1" stop-color="#177CB4"/>
</linearGradient>
<linearGradient id="paint66_linear_5301_11246" x1="117.87" y1="412.224" x2="111.914" y2="412.22" gradientUnits="userSpaceOnUse">
<stop stop-color="#2F9A64"/>
<stop offset="1" stop-color="#177CB4"/>
</linearGradient>
<linearGradient id="paint67_linear_5301_11246" x1="117.87" y1="464.136" x2="111.914" y2="464.131" gradientUnits="userSpaceOnUse">
<stop stop-color="#2F9A64"/>
<stop offset="1" stop-color="#177CB4"/>
</linearGradient>
<linearGradient id="paint68_linear_5301_11246" x1="117.87" y1="516.047" x2="111.914" y2="516.043" gradientUnits="userSpaceOnUse">
<stop stop-color="#2F9A64"/>
<stop offset="1" stop-color="#177CB4"/>
</linearGradient>
<linearGradient id="paint69_linear_5301_11246" x1="117.87" y1="542.002" x2="111.914" y2="541.998" gradientUnits="userSpaceOnUse">
<stop stop-color="#2F9A64"/>
<stop offset="1" stop-color="#177CB4"/>
</linearGradient>
<linearGradient id="paint70_linear_5301_11246" x1="117.87" y1="438.18" x2="111.914" y2="438.176" gradientUnits="userSpaceOnUse">
<stop stop-color="#2F9A64"/>
<stop offset="1" stop-color="#177CB4"/>
</linearGradient>
<linearGradient id="paint71_linear_5301_11246" x1="117.87" y1="490.091" x2="111.914" y2="490.087" gradientUnits="userSpaceOnUse">
<stop stop-color="#2F9A64"/>
<stop offset="1" stop-color="#177CB4"/>
</linearGradient>
<linearGradient id="paint72_linear_5301_11246" x1="143.823" y1="386.269" x2="137.867" y2="386.265" gradientUnits="userSpaceOnUse">
<stop stop-color="#2F9A64"/>
<stop offset="1" stop-color="#177CB4"/>
</linearGradient>
<linearGradient id="paint73_linear_5301_11246" x1="143.823" y1="412.224" x2="137.867" y2="412.22" gradientUnits="userSpaceOnUse">
<stop stop-color="#2F9A64"/>
<stop offset="1" stop-color="#177CB4"/>
</linearGradient>
<linearGradient id="paint74_linear_5301_11246" x1="143.823" y1="464.136" x2="137.867" y2="464.131" gradientUnits="userSpaceOnUse">
<stop stop-color="#2F9A64"/>
<stop offset="1" stop-color="#177CB4"/>
</linearGradient>
<linearGradient id="paint75_linear_5301_11246" x1="143.823" y1="516.047" x2="137.867" y2="516.043" gradientUnits="userSpaceOnUse">
<stop stop-color="#2F9A64"/>
<stop offset="1" stop-color="#177CB4"/>
</linearGradient>
<linearGradient id="paint76_linear_5301_11246" x1="143.823" y1="542.002" x2="137.867" y2="541.998" gradientUnits="userSpaceOnUse">
<stop stop-color="#2F9A64"/>
<stop offset="1" stop-color="#177CB4"/>
</linearGradient>
<linearGradient id="paint77_linear_5301_11246" x1="143.823" y1="438.18" x2="137.867" y2="438.176" gradientUnits="userSpaceOnUse">
<stop stop-color="#2F9A64"/>
<stop offset="1" stop-color="#177CB4"/>
</linearGradient>
<linearGradient id="paint78_linear_5301_11246" x1="143.823" y1="490.091" x2="137.867" y2="490.087" gradientUnits="userSpaceOnUse">
<stop stop-color="#2F9A64"/>
<stop offset="1" stop-color="#177CB4"/>
</linearGradient>
<linearGradient id="paint79_linear_5301_11246" x1="169.776" y1="386.269" x2="163.82" y2="386.265" gradientUnits="userSpaceOnUse">
<stop stop-color="#2F9A64"/>
<stop offset="1" stop-color="#177CB4"/>
</linearGradient>
<linearGradient id="paint80_linear_5301_11246" x1="169.776" y1="412.224" x2="163.82" y2="412.22" gradientUnits="userSpaceOnUse">
<stop stop-color="#2F9A64"/>
<stop offset="1" stop-color="#177CB4"/>
</linearGradient>
<linearGradient id="paint81_linear_5301_11246" x1="169.776" y1="464.136" x2="163.82" y2="464.131" gradientUnits="userSpaceOnUse">
<stop stop-color="#2F9A64"/>
<stop offset="1" stop-color="#177CB4"/>
</linearGradient>
<linearGradient id="paint82_linear_5301_11246" x1="169.776" y1="516.047" x2="163.82" y2="516.043" gradientUnits="userSpaceOnUse">
<stop stop-color="#2F9A64"/>
<stop offset="1" stop-color="#177CB4"/>
</linearGradient>
<linearGradient id="paint83_linear_5301_11246" x1="169.776" y1="542.002" x2="163.82" y2="541.998" gradientUnits="userSpaceOnUse">
<stop stop-color="#2F9A64"/>
<stop offset="1" stop-color="#177CB4"/>
</linearGradient>
<linearGradient id="paint84_linear_5301_11246" x1="169.776" y1="438.18" x2="163.82" y2="438.176" gradientUnits="userSpaceOnUse">
<stop stop-color="#2F9A64"/>
<stop offset="1" stop-color="#177CB4"/>
</linearGradient>
<linearGradient id="paint85_linear_5301_11246" x1="169.776" y1="490.091" x2="163.82" y2="490.087" gradientUnits="userSpaceOnUse">
<stop stop-color="#2F9A64"/>
<stop offset="1" stop-color="#177CB4"/>
</linearGradient>
<linearGradient id="paint86_linear_5301_11246" x1="195.737" y1="386.269" x2="189.781" y2="386.265" gradientUnits="userSpaceOnUse">
<stop stop-color="#2F9A64"/>
<stop offset="1" stop-color="#177CB4"/>
</linearGradient>
<linearGradient id="paint87_linear_5301_11246" x1="195.737" y1="412.224" x2="189.781" y2="412.22" gradientUnits="userSpaceOnUse">
<stop stop-color="#2F9A64"/>
<stop offset="1" stop-color="#177CB4"/>
</linearGradient>
<linearGradient id="paint88_linear_5301_11246" x1="195.737" y1="464.136" x2="189.781" y2="464.131" gradientUnits="userSpaceOnUse">
<stop stop-color="#2F9A64"/>
<stop offset="1" stop-color="#177CB4"/>
</linearGradient>
<linearGradient id="paint89_linear_5301_11246" x1="195.737" y1="516.047" x2="189.781" y2="516.043" gradientUnits="userSpaceOnUse">
<stop stop-color="#2F9A64"/>
<stop offset="1" stop-color="#177CB4"/>
</linearGradient>
<linearGradient id="paint90_linear_5301_11246" x1="195.737" y1="542.002" x2="189.781" y2="541.998" gradientUnits="userSpaceOnUse">
<stop stop-color="#2F9A64"/>
<stop offset="1" stop-color="#177CB4"/>
</linearGradient>
<linearGradient id="paint91_linear_5301_11246" x1="195.737" y1="438.18" x2="189.781" y2="438.176" gradientUnits="userSpaceOnUse">
<stop stop-color="#2F9A64"/>
<stop offset="1" stop-color="#177CB4"/>
</linearGradient>
<linearGradient id="paint92_linear_5301_11246" x1="195.737" y1="490.091" x2="189.781" y2="490.087" gradientUnits="userSpaceOnUse">
<stop stop-color="#2F9A64"/>
<stop offset="1" stop-color="#177CB4"/>
</linearGradient>
<linearGradient id="paint93_linear_5301_11246" x1="221.69" y1="386.269" x2="215.734" y2="386.265" gradientUnits="userSpaceOnUse">
<stop stop-color="#2F9A64"/>
<stop offset="1" stop-color="#177CB4"/>
</linearGradient>
<linearGradient id="paint94_linear_5301_11246" x1="221.69" y1="412.224" x2="215.734" y2="412.22" gradientUnits="userSpaceOnUse">
<stop stop-color="#2F9A64"/>
<stop offset="1" stop-color="#177CB4"/>
</linearGradient>
<linearGradient id="paint95_linear_5301_11246" x1="221.69" y1="464.136" x2="215.734" y2="464.131" gradientUnits="userSpaceOnUse">
<stop stop-color="#2F9A64"/>
<stop offset="1" stop-color="#177CB4"/>
</linearGradient>
<linearGradient id="paint96_linear_5301_11246" x1="221.69" y1="516.047" x2="215.734" y2="516.043" gradientUnits="userSpaceOnUse">
<stop stop-color="#2F9A64"/>
<stop offset="1" stop-color="#177CB4"/>
</linearGradient>
<linearGradient id="paint97_linear_5301_11246" x1="221.69" y1="542.002" x2="215.734" y2="541.998" gradientUnits="userSpaceOnUse">
<stop stop-color="#2F9A64"/>
<stop offset="1" stop-color="#177CB4"/>
</linearGradient>
<linearGradient id="paint98_linear_5301_11246" x1="221.69" y1="438.18" x2="215.734" y2="438.176" gradientUnits="userSpaceOnUse">
<stop stop-color="#2F9A64"/>
<stop offset="1" stop-color="#177CB4"/>
</linearGradient>
<linearGradient id="paint99_linear_5301_11246" x1="221.69" y1="490.091" x2="215.734" y2="490.087" gradientUnits="userSpaceOnUse">
<stop stop-color="#2F9A64"/>
<stop offset="1" stop-color="#177CB4"/>
</linearGradient>
<clipPath id="clip0_5301_11246">
<rect width="1440" height="606" fill="white"/>
</clipPath>
<clipPath id="clip1_5301_11246">
<rect width="162" height="162" fill="white" transform="translate(1218 60)"/>
</clipPath>
<clipPath id="clip2_5301_11246">
<rect width="162" height="162" fill="white" transform="translate(60 384)"/>
</clipPath>
</defs>
</svg>
